<svg width="32" height="32" viewBox="0 0 32 32" fill="none" xmlns="http://www.w3.org/2000/svg">
<path d="M15.9987 9.83606C14.3636 9.83606 12.7954 10.4856 11.6392 11.6418C10.4829 12.7981 9.83337 14.3662 9.83337 16.0014C9.83337 17.6365 10.4829 19.2047 11.6392 20.3609C12.7954 21.5172 14.3636 22.1667 15.9987 22.1667C17.6339 22.1667 19.202 21.5172 20.3583 20.3609C21.5145 19.2047 22.164 17.6365 22.164 16.0014C22.164 14.3662 21.5145 12.7981 20.3583 11.6418C19.202 10.4856 17.6339 9.83606 15.9987 9.83606ZM15.9987 20.0054C14.9364 20.0054 13.9177 19.5834 13.1665 18.8323C12.4154 18.0811 11.9934 17.0623 11.9934 16.0001C11.9934 14.9378 12.4154 13.919 13.1665 13.1679C13.9177 12.4167 14.9364 11.9947 15.9987 11.9947C17.061 11.9947 18.0798 12.4167 18.8309 13.1679C19.5821 13.919 20.004 14.9378 20.004 16.0001C20.004 17.0623 19.5821 18.0811 18.8309 18.8323C18.0798 19.5834 17.061 20.0054 15.9987 20.0054Z" fill="#D3E97A"/>
<path d="M22.408 11.0467C23.2019 11.0467 23.8454 10.4031 23.8454 9.60933C23.8454 8.81551 23.2019 8.172 22.408 8.172C21.6142 8.172 20.9707 8.81551 20.9707 9.60933C20.9707 10.4031 21.6142 11.0467 22.408 11.0467Z" fill="#D3E97A"/>
<path d="M27.3774 8.14805C27.0687 7.35095 26.597 6.62709 25.9925 6.02279C25.3879 5.41849 24.6639 4.94708 23.8667 4.63871C22.9338 4.28852 21.9483 4.09917 20.952 4.07871C19.668 4.02271 19.2614 4.00671 16.0054 4.00671C12.7494 4.00671 12.332 4.00671 11.0587 4.07871C10.0632 4.09812 9.07836 4.28752 8.14669 4.63871C7.34927 4.94672 6.62504 5.41801 6.02046 6.02235C5.41589 6.6267 4.94432 7.35075 4.63602 8.14805C4.28576 9.08086 4.09684 10.0665 4.07735 11.0627C4.02002 12.3454 4.00269 12.752 4.00269 16.0094C4.00269 19.2654 4.00269 19.68 4.07735 20.956C4.09735 21.9534 4.28535 22.9374 4.63602 23.872C4.94519 24.6691 5.41721 25.3928 6.02193 25.9971C6.62665 26.6013 7.35077 27.0728 8.14802 27.3814C9.07793 27.7456 10.0632 27.9486 11.0614 27.9814C12.3454 28.0374 12.752 28.0547 16.008 28.0547C19.264 28.0547 19.6814 28.0547 20.9547 27.9814C21.9508 27.9611 22.9363 27.7722 23.8694 27.4227C24.6664 27.1136 25.3902 26.6418 25.9946 26.0373C26.5991 25.4329 27.0709 24.7091 27.38 23.912C27.7307 22.9787 27.9187 21.9947 27.9387 20.9974C27.996 19.7147 28.0134 19.308 28.0134 16.0507C28.0134 12.7934 28.0134 12.38 27.9387 11.104C27.9232 10.0937 27.7333 9.09371 27.3774 8.14805ZM25.7534 20.8574C25.7448 21.6258 25.6045 22.387 25.3387 23.108C25.1385 23.6265 24.8319 24.0974 24.4388 24.4903C24.0456 24.8832 23.5746 25.1895 23.056 25.3894C22.343 25.654 21.5898 25.7942 20.8294 25.804C19.5627 25.8627 19.2054 25.8774 15.9574 25.8774C12.7067 25.8774 12.3747 25.8774 11.084 25.804C10.3239 25.7947 9.57112 25.6545 8.85869 25.3894C8.33827 25.1907 7.86535 24.885 7.47054 24.492C7.07572 24.099 6.7678 23.6275 6.56669 23.108C6.30461 22.3948 6.16443 21.6425 6.15202 20.8827C6.09469 19.616 6.08135 19.2587 6.08135 16.0107C6.08135 12.7614 6.08135 12.4294 6.15202 11.1374C6.16064 10.3694 6.30089 9.60861 6.56669 8.88805C6.97335 7.83605 7.80669 7.00805 8.85869 6.60538C9.57147 6.34157 10.3241 6.20133 11.084 6.19071C12.352 6.13338 12.708 6.11738 15.9574 6.11738C19.2067 6.11738 19.54 6.11738 20.8294 6.19071C21.5899 6.19986 22.3432 6.34014 23.056 6.60538C23.5746 6.80574 24.0455 7.11232 24.4386 7.50542C24.8318 7.89852 25.1383 8.36948 25.3387 8.88805C25.6008 9.60131 25.7409 10.3536 25.7534 11.1134C25.8107 12.3814 25.8254 12.7374 25.8254 15.9867C25.8254 19.2347 25.8254 19.584 25.768 20.8587H25.7534V20.8574Z" fill="#D3E97A"/>
</svg>
