<svg width="32" height="32" viewBox="0 0 32 32" fill="none" xmlns="http://www.w3.org/2000/svg">
<path d="M6.64402 9.59602C8.25522 9.59602 9.56135 8.28988 9.56135 6.67869C9.56135 5.06749 8.25522 3.76135 6.64402 3.76135C5.03282 3.76135 3.72668 5.06749 3.72668 6.67869C3.72668 8.28988 5.03282 9.59602 6.64402 9.59602Z" fill="#D3E97A"/>
<path d="M12.316 11.8066V27.9919H17.3414V19.9879C17.3414 17.8759 17.7387 15.8306 20.3574 15.8306C22.94 15.8306 22.972 18.2453 22.972 20.1213V27.9933H28V19.1173C28 14.7573 27.0614 11.4066 21.9654 11.4066C19.5187 11.4066 17.8787 12.7493 17.208 14.0199H17.14V11.8066H12.316ZM4.12671 11.8066H9.16004V27.9919H4.12671V11.8066Z" fill="#D3E97A"/>
</svg>
