<svg width="22" height="22" viewBox="0 0 22 22" fill="none" xmlns="http://www.w3.org/2000/svg">
<path fill-rule="evenodd" clip-rule="evenodd" d="M11.0238 1.83337C5.9739 1.83337 1.88098 5.92629 1.88098 10.9762C1.88098 15.015 4.4999 18.4425 8.13356 19.6525C8.59098 19.735 8.75598 19.4535 8.75598 19.2115C8.75598 18.9943 8.74865 18.4186 8.7459 17.6569C6.20215 18.2087 5.66498 16.4304 5.66498 16.4304C5.25065 15.3744 4.65023 15.093 4.65023 15.093C3.82065 14.5255 4.71348 14.5384 4.71348 14.5384C5.63198 14.6025 6.11323 15.4807 6.11323 15.4807C6.92906 16.8777 8.25456 16.4744 8.7734 16.2406C8.85681 15.6494 9.09515 15.246 9.35548 15.0178C7.32598 14.7877 5.19198 14.003 5.19198 10.4986C5.19198 9.50221 5.54856 8.68454 6.13065 8.04654C6.03806 7.81462 5.72181 6.88421 6.2214 5.62654C6.2214 5.62654 6.98865 5.37996 8.7349 6.56246C9.48069 6.35957 10.25 6.25601 11.0229 6.25446C11.7958 6.25571 12.5652 6.35928 13.3109 6.56246C15.0581 5.37904 15.8244 5.62654 15.8244 5.62654C16.324 6.88421 16.0105 7.81462 15.9151 8.04654C16.5018 8.68454 16.8538 9.50129 16.8538 10.4986C16.8538 14.0122 14.718 14.784 12.6811 15.0105C13.0066 15.2928 13.2999 15.8501 13.2999 16.7026C13.2999 17.9255 13.2889 18.9118 13.2889 19.2115C13.2889 19.4563 13.4521 19.7405 13.9186 19.6506C17.5505 18.4388 20.1666 15.0141 20.1666 10.9762C20.1666 5.92629 16.0737 1.83337 11.0238 1.83337Z" fill="#D3E97A"/>
</svg>
