<svg width="48" height="48" viewBox="0 0 48 48" fill="none" xmlns="http://www.w3.org/2000/svg">
<rect width="48" height="48" rx="24" fill="#222222"/>
<path fill-rule="evenodd" clip-rule="evenodd" d="M24.026 14C18.517 14 14.052 18.465 14.052 23.974C14.052 28.38 16.909 32.119 20.873 33.439C21.372 33.529 21.552 33.222 21.552 32.958C21.552 32.721 21.544 32.093 21.541 31.262C18.766 31.864 18.18 29.924 18.18 29.924C17.728 28.772 17.073 28.465 17.073 28.465C16.168 27.846 17.142 27.86 17.142 27.86C18.144 27.93 18.669 28.888 18.669 28.888C19.559 30.412 21.005 29.972 21.571 29.717C21.662 29.072 21.922 28.632 22.206 28.383C19.992 28.132 17.664 27.276 17.664 23.453C17.664 22.366 18.053 21.474 18.688 20.778C18.587 20.525 18.242 19.51 18.787 18.138C18.787 18.138 19.624 17.869 21.529 19.159C22.3426 18.9377 23.1818 18.8247 24.025 18.823C24.8682 18.8244 25.7075 18.9374 26.521 19.159C28.427 17.868 29.263 18.138 29.263 18.138C29.808 19.51 29.466 20.525 29.362 20.778C30.002 21.474 30.386 22.365 30.386 23.453C30.386 27.286 28.056 28.128 25.834 28.375C26.189 28.683 26.509 29.291 26.509 30.221C26.509 31.555 26.497 32.631 26.497 32.958C26.497 33.225 26.675 33.535 27.184 33.437C31.146 32.115 34 28.379 34 23.974C34 18.465 29.535 14 24.026 14Z" fill="#D3E97A"/>
</svg>
