<svg width="48" height="48" viewBox="0 0 48 48" fill="none" xmlns="http://www.w3.org/2000/svg">
<rect width="48" height="48" rx="24" fill="#222222"/>
<path d="M16.983 19.197C18.1914 19.197 19.171 18.2174 19.171 17.009C19.171 15.8006 18.1914 14.821 16.983 14.821C15.7746 14.821 14.795 15.8006 14.795 17.009C14.795 18.2174 15.7746 19.197 16.983 19.197Z" fill="#D3E97A"/>
<path d="M21.237 20.8549V32.9939H25.006V26.9909C25.006 25.4069 25.304 23.8729 27.268 23.8729C29.205 23.8729 29.229 25.6839 29.229 27.0909V32.9949H33V26.3379C33 23.0679 32.296 20.5549 28.474 20.5549C26.639 20.5549 25.409 21.5619 24.906 22.5149H24.855V20.8549H21.237ZM15.095 20.8549H18.87V32.9939H15.095V20.8549Z" fill="#D3E97A"/>
</svg>
